<svg width="18" height="18" viewBox="0 0 18 18" fill="none" xmlns="http://www.w3.org/2000/svg">
<rect width="18" height="18" fill="#1E1E1E"/>
<g clip-path="url(#clip0_0_1)">
<rect width="1728" height="5189" transform="translate(-1477 -4988)" fill="white"/>
<rect width="1728" height="398" transform="translate(-1477 -197)" fill="#F5F5F5"/>
<circle opacity="0.1" cx="8.5" cy="9.5" r="17.5" fill="#1E1E1E"/>
<path d="M17.4634 12.65C17.4634 15.7574 15.611 17.6098 12.5037 17.6098H11.4878C11.0183 17.6098 10.6342 17.2256 10.6342 16.7561V11.8305C10.6342 11.6 10.822 11.4037 11.0524 11.4037L12.5549 11.3781C12.6744 11.3696 12.7769 11.2842 12.8025 11.1647L13.1012 9.53419C13.1269 9.38053 13.0073 9.2354 12.8451 9.2354L11.0268 9.26101C10.7878 9.26101 10.6 9.07322 10.5915 8.84273L10.5573 6.75125C10.5573 6.61467 10.6683 6.49517 10.8134 6.49517L12.8622 6.46101C13.0073 6.46101 13.1183 6.35005 13.1183 6.20493L13.0842 4.15613C13.0842 4.011 12.9732 3.90004 12.8281 3.90004L10.5232 3.93419C9.10611 3.9598 7.97929 5.12077 8.0049 6.53784L8.04758 8.8854C8.05611 9.12442 7.86832 9.31224 7.62929 9.32078L6.60489 9.33784C6.45977 9.33784 6.3488 9.4488 6.3488 9.59393L6.37441 11.2159C6.37441 11.361 6.48538 11.472 6.6305 11.472L7.6549 11.4549C7.89393 11.4549 8.08171 11.6427 8.09025 11.8732L8.16708 16.7391C8.17561 17.2171 7.79147 17.6098 7.31342 17.6098H5.35001C2.2427 17.6098 0.390259 15.7573 0.390259 12.6415V5.49638C0.390259 2.38906 2.2427 0.536621 5.35001 0.536621H12.5037C15.611 0.536621 17.4634 2.38906 17.4634 5.49638V12.65Z" fill="#1E1E1E"/>
</g>
<defs>
<clipPath id="clip0_0_1">
<rect width="1728" height="5189" fill="white" transform="translate(-1477 -4988)"/>
</clipPath>
</defs>
</svg>
