<svg width="18" height="18" viewBox="0 0 18 18" fill="none" xmlns="http://www.w3.org/2000/svg">
<rect width="18" height="18" fill="#1E1E1E"/>
<g clip-path="url(#clip0_0_1)">
<rect width="1728" height="5189" transform="translate(-1525 -4989)" fill="white"/>
<rect width="1728" height="398" transform="translate(-1525 -198)" fill="#F5F5F5"/>
<circle opacity="0.1" cx="8.5" cy="8.5" r="17.5" fill="#1E1E1E"/>
<path d="M12.1821 0H4.98788C1.86294 0 0 1.86294 0 4.98788V12.1735C0 15.3071 1.86294 17.17 4.98788 17.17H12.1735C15.2985 17.17 17.1614 15.3071 17.1614 12.1821V4.98788C17.17 1.86294 15.3071 0 12.1821 0ZM8.585 11.916C6.74781 11.916 5.25402 10.4222 5.25402 8.585C5.25402 6.74781 6.74781 5.25402 8.585 5.25402C10.4222 5.25402 11.916 6.74781 11.916 8.585C11.916 10.4222 10.4222 11.916 8.585 11.916ZM13.6673 4.18948C13.6244 4.2925 13.5643 4.38694 13.487 4.47278C13.4012 4.55005 13.3067 4.61015 13.2037 4.65307C13.1007 4.69599 12.9891 4.72175 12.8775 4.72175C12.6457 4.72175 12.4311 4.6359 12.268 4.47278C12.1907 4.38694 12.1306 4.2925 12.0877 4.18948C12.0448 4.08646 12.019 3.97485 12.019 3.86325C12.019 3.75165 12.0448 3.64004 12.0877 3.53702C12.1306 3.42542 12.1907 3.33957 12.268 3.25372C12.4654 3.05626 12.7659 2.96182 13.0406 3.02192C13.1007 3.0305 13.1522 3.04767 13.2037 3.07343C13.2552 3.0906 13.3067 3.11636 13.3583 3.1507C13.4012 3.17645 13.4441 3.21937 13.487 3.25372C13.5643 3.33957 13.6244 3.42542 13.6673 3.53702C13.7102 3.64004 13.736 3.75165 13.736 3.86325C13.736 3.97485 13.7102 4.08646 13.6673 4.18948Z" fill="#1E1E1E"/>
</g>
<defs>
<clipPath id="clip0_0_1">
<rect width="1728" height="5189" fill="white" transform="translate(-1525 -4989)"/>
</clipPath>
</defs>
</svg>
