<svg width="17" height="16" viewBox="0 0 17 16" fill="none" xmlns="http://www.w3.org/2000/svg">
<rect width="17" height="16" fill="#1E1E1E"/>
<g clip-path="url(#clip0_0_1)">
<rect width="1728" height="5189" transform="translate(-1430 -4990)" fill="white"/>
<rect width="1728" height="398" transform="translate(-1430 -199)" fill="#F5F5F5"/>
<circle opacity="0.1" cx="7.5" cy="7.5" r="17.5" fill="#1E1E1E"/>
<path d="M14.2075 0.243896H2.50017C1.49041 0.243896 0.670898 1.06341 0.670898 2.07316V13.7805C0.670898 14.7902 1.49041 15.6097 2.50017 15.6097H14.2075C15.2172 15.6097 16.0368 14.7902 16.0368 13.7805V2.07316C16.0368 1.06341 15.2172 0.243896 14.2075 0.243896ZM5.427 6.09755V13.0488H3.23187V6.09755H5.427ZM3.23187 4.07438C3.23187 3.56219 3.6709 3.17073 4.32943 3.17073C4.98797 3.17073 5.40139 3.56219 5.427 4.07438C5.427 4.58658 5.01724 4.99999 4.32943 4.99999C3.6709 4.99999 3.23187 4.58658 3.23187 4.07438ZM13.4758 13.0488H11.2807C11.2807 13.0488 11.2807 9.66097 11.2807 9.39024C11.2807 8.65853 10.9148 7.92682 10.0002 7.91219H9.9709C9.08553 7.91219 8.71968 8.66585 8.71968 9.39024C8.71968 9.72316 8.71968 13.0488 8.71968 13.0488H6.52456V6.09755H8.71968V7.03414C8.71968 7.03414 9.42578 6.09755 10.8453 6.09755C12.2977 6.09755 13.4758 7.09633 13.4758 9.11951V13.0488Z" fill="#1E1E1E"/>
</g>
<defs>
<clipPath id="clip0_0_1">
<rect width="1728" height="5189" fill="white" transform="translate(-1430 -4990)"/>
</clipPath>
</defs>
</svg>
