<svg width="61" height="24" viewBox="0 0 61 24" fill="none" xmlns="http://www.w3.org/2000/svg">
<rect width="61" height="24" fill="#1E1E1E"/>
<g clip-path="url(#clip0_0_1)">
<rect width="1728" height="5189" transform="translate(-120 -36)" fill="white"/>
<rect x="-120" y="-36" width="1728" height="1001" fill="#FDCA09"/>
<mask id="path-2-inside-1_0_1" fill="white">
<path d="M-120 -36H1608V60H-120V-36Z"/>
</mask>
<path d="M-120 -36H1608V60H-120V-36Z" fill="#F5F4F6"/>
<path d="M1608 59H-120V61H1608V59Z" fill="#E7E7E7" mask="url(#path-2-inside-1_0_1)"/>
<path d="M1.68 21V3.72H4.572V10.992H12.756V3.72H15.636V21H12.756V13.704H4.572V21H1.68ZM22.6243 21.36C21.6883 21.36 20.8963 21.184 20.2483 20.832C19.6003 20.472 19.1083 19.996 18.7723 19.404C18.4443 18.812 18.2803 18.16 18.2803 17.448C18.2803 16.824 18.3843 16.264 18.5923 15.768C18.8003 15.264 19.1203 14.832 19.5523 14.472C19.9843 14.104 20.5443 13.804 21.2323 13.572C21.7523 13.404 22.3603 13.252 23.0563 13.116C23.7603 12.98 24.5203 12.856 25.3363 12.744C26.1603 12.624 27.0203 12.496 27.9163 12.36L26.8843 12.948C26.8923 12.052 26.6923 11.392 26.2843 10.968C25.8763 10.544 25.1883 10.332 24.2203 10.332C23.6363 10.332 23.0723 10.468 22.5283 10.74C21.9843 11.012 21.6043 11.48 21.3883 12.144L18.7483 11.316C19.0683 10.22 19.6763 9.34 20.5723 8.676C21.4763 8.012 22.6923 7.68 24.2203 7.68C25.3723 7.68 26.3843 7.868 27.2563 8.244C28.1363 8.62 28.7883 9.236 29.2123 10.092C29.4443 10.548 29.5843 11.016 29.6323 11.496C29.6803 11.968 29.7043 12.484 29.7043 13.044V21H27.1723V18.192L27.5923 18.648C27.0083 19.584 26.3243 20.272 25.5403 20.712C24.7643 21.144 23.7923 21.36 22.6243 21.36ZM23.2003 19.056C23.8563 19.056 24.4163 18.94 24.8803 18.708C25.3443 18.476 25.7123 18.192 25.9843 17.856C26.2643 17.52 26.4523 17.204 26.5483 16.908C26.7003 16.54 26.7843 16.12 26.8003 15.648C26.8243 15.168 26.8363 14.78 26.8363 14.484L27.7243 14.748C26.8523 14.884 26.1043 15.004 25.4803 15.108C24.8563 15.212 24.3203 15.312 23.8723 15.408C23.4243 15.496 23.0283 15.596 22.6843 15.708C22.3483 15.828 22.0643 15.968 21.8323 16.128C21.6003 16.288 21.4203 16.472 21.2923 16.68C21.1723 16.888 21.1123 17.132 21.1123 17.412C21.1123 17.732 21.1923 18.016 21.3523 18.264C21.5123 18.504 21.7443 18.696 22.0483 18.84C22.3603 18.984 22.7443 19.056 23.2003 19.056ZM41.7924 21V14.76C41.7924 14.352 41.7644 13.9 41.7084 13.404C41.6524 12.908 41.5204 12.432 41.3124 11.976C41.1124 11.512 40.8084 11.132 40.4004 10.836C40.0004 10.54 39.4564 10.392 38.7684 10.392C38.4004 10.392 38.0364 10.452 37.6764 10.572C37.3164 10.692 36.9884 10.9 36.6924 11.196C36.4044 11.484 36.1724 11.884 35.9964 12.396C35.8204 12.9 35.7324 13.548 35.7324 14.34L34.0164 13.608C34.0164 12.504 34.2284 11.504 34.6524 10.608C35.0844 9.712 35.7164 9 36.5484 8.472C37.3804 7.936 38.4044 7.668 39.6204 7.668C40.5804 7.668 41.3724 7.828 41.9964 8.148C42.6204 8.468 43.1164 8.876 43.4844 9.372C43.8524 9.868 44.1244 10.396 44.3004 10.956C44.4764 11.516 44.5884 12.048 44.6364 12.552C44.6924 13.048 44.7204 13.452 44.7204 13.764V21H41.7924ZM32.8044 21V8.04H35.3844V12.06H35.7324V21H32.8044ZM52.8369 21.36C51.6449 21.36 50.6049 21.06 49.7169 20.46C48.8289 19.86 48.1409 19.044 47.6529 18.012C47.1649 16.98 46.9209 15.816 46.9209 14.52C46.9209 13.208 47.1649 12.04 47.6529 11.016C48.1489 9.984 48.8489 9.172 49.7529 8.58C50.6569 7.98 51.7209 7.68 52.9449 7.68C54.1769 7.68 55.2089 7.98 56.0409 8.58C56.8809 9.172 57.5169 9.984 57.9489 11.016C58.3809 12.048 58.5969 13.216 58.5969 14.52C58.5969 15.808 58.3809 16.972 57.9489 18.012C57.5169 19.044 56.8729 19.86 56.0169 20.46C55.1609 21.06 54.1009 21.36 52.8369 21.36ZM53.2809 18.768C54.0569 18.768 54.6809 18.592 55.1529 18.24C55.6329 17.88 55.9809 17.38 56.1969 16.74C56.4209 16.1 56.5329 15.36 56.5329 14.52C56.5329 13.672 56.4209 12.932 56.1969 12.3C55.9809 11.66 55.6409 11.164 55.1769 10.812C54.7129 10.452 54.1129 10.272 53.3769 10.272C52.6009 10.272 51.9609 10.464 51.4569 10.848C50.9529 11.224 50.5809 11.736 50.3409 12.384C50.1009 13.024 49.9809 13.736 49.9809 14.52C49.9809 15.312 50.0969 16.032 50.3289 16.68C50.5689 17.32 50.9329 17.828 51.4209 18.204C51.9089 18.58 52.5289 18.768 53.2809 18.768ZM56.5329 21V11.904H56.1729V3.72H59.0889V21H56.5329Z" fill="black"/>
</g>
<defs>
<clipPath id="clip0_0_1">
<rect width="1728" height="5189" fill="white" transform="translate(-120 -36)"/>
</clipPath>
</defs>
</svg>
